<svg width="16" height="19" viewBox="0 0 16 19" fill="none" xmlns="http://www.w3.org/2000/svg">
<path d="M1.28481 8.1008L0.351205 16.5008L1.54401 16.634L2.47761 8.2328L1.28481 8.1008ZM2.14041 18.5H13.8596V17.3H2.14041V18.5ZM15.6488 16.5008L14.7152 8.1008L13.5224 8.2328L14.456 16.634L15.6488 16.5008ZM12.9248 6.5H3.07521V7.7H12.9272V6.5H12.9248ZM14.7152 8.1008C14.6662 7.66058 14.4566 7.25389 14.1265 6.95854C13.7964 6.6632 13.3677 6.49994 12.9248 6.5L12.926 7.7C13.0737 7.69999 13.2162 7.75447 13.3263 7.853C13.4363 7.95153 13.5062 8.08719 13.5224 8.234L14.7152 8.1008ZM13.8596 18.5C14.1127 18.4999 14.3629 18.4464 14.594 18.343C14.825 18.2396 15.0316 18.0886 15.2003 17.9C15.3691 17.7113 15.4961 17.4892 15.5732 17.2481C15.6503 17.007 15.6768 16.7524 15.6488 16.5008L14.456 16.634C14.4655 16.7179 14.4571 16.8017 14.4314 16.8822C14.4058 16.9627 14.3634 17.0369 14.3071 17.0999C14.2508 17.1628 14.1818 17.2132 14.1047 17.2477C14.0276 17.2822 13.9441 17.3 13.8596 17.3V18.5ZM0.351205 16.5008C0.323184 16.7525 0.348571 17.0072 0.42571 17.2484C0.502848 17.4895 0.630001 17.7117 0.798862 17.9004C0.967723 18.0891 1.17449 18.24 1.40566 18.3433C1.63683 18.4466 1.8872 18.5 2.14041 18.5V17.3C2.05604 17.3 1.97262 17.2822 1.8956 17.2478C1.81857 17.2134 1.74967 17.1631 1.69339 17.1003C1.63711 17.0374 1.59471 16.9634 1.56897 16.8831C1.54323 16.8027 1.53473 16.7179 1.54401 16.634L0.351205 16.502V16.5008ZM2.47761 8.2328C2.49413 8.0862 2.56408 7.95083 2.6741 7.85255C2.78411 7.75427 2.92768 7.69996 3.07521 7.7V6.5C2.63247 6.50023 2.20415 6.66362 1.8743 6.95894C1.54445 7.25426 1.3338 7.66078 1.28481 8.1008L2.47761 8.2328ZM5.00001 5.3V4.7H3.80001V5.3H5.00001ZM11 4.7V5.3H12.2V4.7H11ZM8 1.7C8.79565 1.7 9.55872 2.01607 10.1213 2.57868C10.6839 3.14129 11 3.90435 11 4.7H12.2C12.2 3.58609 11.7575 2.5178 10.9699 1.73015C10.1822 0.942499 9.11391 0.5 8 0.5V1.7ZM5.00001 4.7C5.00001 3.90435 5.31608 3.14129 5.87868 2.57868C6.44129 2.01607 7.20436 1.7 8 1.7V0.5C6.8861 0.5 5.81781 0.942499 5.03016 1.73015C4.2425 2.5178 3.80001 3.58609 3.80001 4.7H5.00001Z" fill="black"/>
</svg>
