<svg width="18" height="19" viewBox="0 0 18 19" fill="none" xmlns="http://www.w3.org/2000/svg">
<path d="M8.99394 10.0148C9.52579 10.0148 10.0524 9.91003 10.5438 9.7065C11.0352 9.50297 11.4816 9.20464 11.8577 8.82857C12.2338 8.45249 12.5321 8.00602 12.7356 7.51465C12.9392 7.02328 13.0439 6.49664 13.0439 5.96479C13.0439 5.43293 12.9392 4.90629 12.7356 4.41492C12.5321 3.92355 12.2338 3.47708 11.8577 3.101C11.4816 2.72492 11.0352 2.4266 10.5438 2.22307C10.0524 2.01954 9.52579 1.91478 8.99394 1.91478C7.91981 1.91478 6.88968 2.34148 6.13015 3.101C5.37063 3.86052 4.94394 4.89066 4.94394 5.96479C4.94394 7.03891 5.37063 8.06904 6.13015 8.82857C6.88968 9.58809 7.91981 10.0148 8.99394 10.0148ZM9.00024 0.499085C10.1857 0.498699 11.3384 0.888432 12.2804 1.60815C13.2224 2.32787 13.9014 3.33758 14.2126 4.48149C14.5238 5.62539 14.4499 6.83992 14.0024 7.93768C13.5549 9.03544 12.7585 9.95543 11.7362 10.5557C15.0554 11.5547 17.5484 14.3519 17.9957 17.8259C18.038 18.1562 17.7923 18.4559 17.4467 18.4964C17.102 18.5369 16.787 18.3029 16.7447 17.9726C16.2587 14.2016 12.9926 11.3621 9.03174 11.3621C5.04924 11.3621 1.74084 14.207 1.25574 17.9726C1.21344 18.3029 0.898437 18.5369 0.553737 18.4964C0.208137 18.4559 -0.0375631 18.1562 0.00473692 17.8259C0.451137 14.3663 2.95764 11.5727 6.28224 10.5647C5.25685 9.96715 4.45688 9.04846 4.00599 7.95066C3.55511 6.85286 3.47843 5.6371 3.78781 4.49135C4.0972 3.3456 4.77541 2.33368 5.7176 1.61205C6.65978 0.890421 7.81345 0.499273 9.00024 0.499085Z" fill="black"/>
</svg>
